<svg xmlns="http://www.w3.org/2000/svg" viewBox="0 0 122.88 62.27" fill-rule="evenodd" xmlns:v="https://vecta.io/nano"><path d="M61.44 62.27c33.93 0 61.44-13.94 61.44-31.14C122.88 13.94 95.37 0 61.44 0S0 13.94 0 31.14c0 17.19 27.51 31.13 61.44 31.13h0zm32.44-37.28c-.47-.52-1.71-.78-3.73-.78H87.1l-1.79 9.19h1.75c1.23 0 2.27-.11 3.14-.33.76-.19 1.37-.46 1.83-.81.45-.34.83-.82 1.15-1.44.36-.69.65-1.55.85-2.58.19-.96.24-1.75.16-2.38-.05-.41-.15-.7-.31-.87h0zM54.56 6.86h6.81c1.1 0 2 .9 2 2 0 .17-.02.34-.06.5l-1.14 5.87h3.64c2.07 0 3.84.19 5.32.56 1.64.42 2.95 1.07 3.93 1.97.85.78 1.45 1.74 1.81 2.88l.71-3.67c.13-.98.97-1.74 1.98-1.74h13.2c2.2 0 4.14.3 5.82.91 1.77.64 3.23 1.61 4.37 2.91 1.15 1.32 1.9 2.88 2.24 4.69.32 1.71.28 3.61-.13 5.72a18.29 18.29 0 0 1-.69 2.51c-.29.81-.64 1.58-1.05 2.31-.42.74-.89 1.45-1.41 2.1-.53.66-1.12 1.3-1.77 1.89h0c-.79.74-1.62 1.37-2.49 1.89a13.83 13.83 0 0 1-2.8 1.28c-.94.31-2.02.54-3.22.69a30.43 30.43 0 0 1-3.8.23H83.6L82.28 49c-.13.98-.97 1.74-1.98 1.74h-6.86 0c-.12 0-.25-.01-.38-.04a2.01 2.01 0 0 1-1.59-2.34l1.18-6.07c-.16.04-.33.06-.5.06h0-6.92c-1.1 0-2-.9-2-2 0-.17.02-.34.06-.5l2.68-13.81c.12-.61.16-1.08.12-1.42-.01-.1.07-.05.04-.09l-.28-.07c-.4-.1-.96-.15-1.68-.15h-3.8L57.2 40.74a1.99 1.99 0 0 1-1.96 1.62h0-6.81c-1.1 0-2-.9-2-2 0-.17.02-.34.06-.5l.36-1.87-.3.28h0c-.79.74-1.62 1.37-2.49 1.89a13.83 13.83 0 0 1-2.8 1.28c-.94.31-2.02.54-3.22.69a30.43 30.43 0 0 1-3.8.23H30L28.71 49c-.13.98-.97 1.74-1.98 1.74h-6.86 0c-.12 0-.25-.01-.38-.04a2.01 2.01 0 0 1-1.59-2.34L24 16.97c.13-.98.97-1.74 1.98-1.74h13.2c2.2 0 4.14.3 5.82.91 1.78.64 3.23 1.61 4.37 2.91a10.39 10.39 0 0 1 .93 1.25l2.3-11.81a2 2 0 0 1 1.96-1.63h0 0zM40.32 24.99c-.47-.52-1.71-.78-3.73-.78h-3.06l-1.79 9.19h1.75c1.23 0 2.27-.11 3.14-.33.76-.19 1.37-.46 1.83-.81.45-.34.83-.82 1.15-1.44.36-.69.65-1.55.85-2.58.19-.96.24-1.75.16-2.38-.05-.41-.15-.7-.3-.87h0z" fill="#6884ba"/><path d="M90.15 22.21c2.61 0 4.35.48 5.21 1.44.87.96 1.07 2.61.62 4.96-.47 2.44-1.39 4.18-2.74 5.22s-3.42 1.56-6.18 1.56h-4.17l2.56-13.19h4.7v.01zM54.56 8.86h6.81l-1.63 8.38h6.07c3.82 0 6.45.67 7.9 2s1.88 3.49 1.3 6.47l-2.85 14.66h-6.92l2.71-13.94c.31-1.59.19-2.67-.34-3.24-.54-.58-1.67-.87-3.42-.87h-5.44l-3.51 18.05h-6.81l6.13-31.51h0zM36.59 22.21c2.61 0 4.35.48 5.21 1.44.87.96 1.08 2.61.62 4.96-.47 2.44-1.39 4.18-2.74 5.22s-3.42 1.56-6.18 1.56h-4.17l2.56-13.19h4.7v.01zM19.87 48.74h6.86l1.63-8.38h5.88c2.59 0 4.73-.27 6.4-.82 1.68-.54 3.2-1.46 4.57-2.74 1.15-1.06 2.08-2.22 2.79-3.5.71-1.27 1.22-2.68 1.52-4.22.73-3.73.18-6.64-1.64-8.73-1.82-2.08-4.72-3.13-8.69-3.13h-13.2l-6.12 31.52h0zm53.56 0h6.86l1.63-8.38h5.88c2.59 0 4.73-.27 6.4-.82 1.68-.54 3.2-1.46 4.57-2.74 1.15-1.06 2.08-2.22 2.79-3.5.71-1.27 1.22-2.68 1.52-4.22.73-3.73.18-6.64-1.64-8.73-1.82-2.08-4.72-3.13-8.69-3.13h-13.2l-6.12 31.52h0z"/></svg>